PathFileType	4	(X/Y/Z)	C:/Users/opensim2020/Desktop/walking_exp_matlab/subject01_walking11_straight_02.trc																																																																																																																																		
DataRate	CameraRate	NumFrames	NumMarkers	Units	OrigDataRate	OrigDataStartFrame	OrigNumFrames																																																																																																																														
100	100	4	44	mm	100	2040	266																																																																																																																														
Frame#	Time	LFHD			RFHD			LBHD			RBHD			C7			T10			CLAV			STRN			RBAK			LSHO			LUPA			LELB			LFRM			LWRA			LWRB			LFIN			RSHO			RUPA			RELB			RFRM			RWRA			RWRB			RFIN			LASI			RASI			LPSI			RPSI			LTHI			LKNE			LTIB			LANK			LHEE			LTOE			RTHI			RKNE			RTIB			RANK			RHEE			RTOE			*39			*40			*41			*42			*43		
		X1	Y1	Z1	X2	Y2	Z2	X3	Y3	Z3	X4	Y4	Z4	X5	Y5	Z5	X6	Y6	Z6	X7	Y7	Z7	X8	Y8	Z8	X9	Y9	Z9	X10	Y10	Z10	X11	Y11	Z11	X12	Y12	Z12	X13	Y13	Z13	X14	Y14	Z14	X15	Y15	Z15	X16	Y16	Z16	X17	Y17	Z17	X18	Y18	Z18	X19	Y19	Z19	X20	Y20	Z20	X21	Y21	Z21	X22	Y22	Z22	X23	Y23	Z23	X24	Y24	Z24	X25	Y25	Z25	X26	Y26	Z26	X27	Y27	Z27	X28	Y28	Z28	X29	Y29	Z29	X30	Y30	Z30	X31	Y31	Z31	X32	Y32	Z32	X33	Y33	Z33	X34	Y34	Z34	X35	Y35	Z35	X36	Y36	Z36	X37	Y37	Z37	X38	Y38	Z38	X39	Y39	Z39	X40	Y40	Z40	X41	Y41	Z41	X42	Y42	Z42	X43	Y43	Z43	X44	Y44	Z44
																																																																																																																																					
100	0.99	-229.67805	1660.05676	1012.56024	-191.89264	1663.83496	1120.87036	-344.09525	1624.17725	1046.76672	-307.68588	1628.21545	1162.28687	-385.66464	1424.12183	1083.39136	-418.22482	1130.11853	1091.46838	-243.32399	1355.651	1074.77625	-199.02492	1201.5365	1069.07117	-436.2244	1227.44849	1162.08142	-315.58743	1387.58582	917.09943	-372.15536	1204.65735	841.87799	-401.7579	1057.68213	849.06958	-385.948	947.03857	817.20819	-325.26901	819.60175	821.95599	-383.01425	824.87402	806.20813	-349.34323	747.50232	789.46399	-302.31137	1385.65405	1228.58276	-350.91861	1186.25415	1334.56738	-341.81415	1061.62439	1343.90015	-295.45499	950.92926	1379.31055	-195.73451	850.14453	1364.85742	-238.23486	844.97906	1404.58142	-188.37794	774.56793	1404.24597	-245.56322	926.34418	981.55383	-247.73701	920.30798	1199.73303	-432.48013	937.26447	1027.90063	-431.93616	942.76166	1172.63831	-209.51178	608.07251	915.41577	-183.54704	479.78299	930.25482	-190.34117	292.59958	914.14099	-159.24591	72.57801	951.02271	-199.83057	38.57561	1003.15833	-10.91417	50.26223	955.42548	-357.75888	595.69171	1251.20959	-385.97083	436.33987	1228.44507	-498.79904	298.84653	1240.03113	-604.07983	118.0378	1197.35303	-667.1051	101.62292	1152.58777	-487.08078	37.32694	1179.71313	-205.74094	1698.50049	1101.02283	-1973.18188	1023.44196	3101.9104	-2012.48938	1021.9873	3140.64551	NaN	NaN	NaN	NaN	NaN	NaN
101	1	-222.26079	1660.29651	1009.93341	-184.5426	1664.17615	1118.29224	-336.54776	1624.25281	1044.00378	-300.31317	1628.39221	1159.67432	-377.57022	1424.18677	1080.80042	-409.67484	1129.99304	1089.42444	-235.32797	1355.91968	1072.30212	-190.51794	1201.91138	1066.61438	-428.25531	1227.13757	1159.32324	-307.75076	1387.18176	914.55841	-363.62488	1203.93201	839.57758	-392.48883	1056.7644	846.62482	-376.21176	946.23645	814.82477	-315.09598	819.01001	819.73846	-372.7655	824.08759	803.7605	-338.96338	747.01489	787.20361	-294.48871	1385.68335	1226.20544	-343.54175	1186.30042	1331.97388	-334.67935	1061.59973	1341.1615	-289.28397	950.68951	1376.79846	-190.22067	849.24719	1362.57996	-233.05907	844.45538	1402.35583	-183.40924	773.71295	1401.95898	-236.63361	926.56378	979.42841	-238.56841	920.22498	1197.51172	-423.51541	937.58649	1025.948	-422.81332	942.48724	1170.73108	-200.82956	608.68994	914.34338	-173.8829	480.83319	929.92798	-181.38538	293.29944	912.61884	-156.9919	72.43564	950.77722	-198.75925	39.25687	1002.57495	-9.45028	46.44456	954.86023	-348.11273	595.54822	1249.60559	-376.57504	436.04816	1227.64587	-492.49786	301.0336	1239.38843	-600.77246	121.7352	1197.60632	-664.32306	107.07762	1152.7793	-486.59845	37.18462	1179.83679	-198.34325	1698.77844	1098.40088	-1973.13062	1023.40045	3101.99536	-2012.55383	1021.987	3140.67798	NaN	NaN	NaN	NaN	NaN	NaN
102	1.01	-214.89619	1660.62146	1007.2536	-177.16928	1664.62952	1115.64453	-329.10623	1624.34229	1041.37793	-292.89557	1628.60315	1156.97729	-369.58118	1424.3186	1078.37939	-401.2305	1129.99951	1087.40918	-227.29524	1356.26367	1069.93176	-182.05525	1202.37732	1064.30383	-420.01892	1227.03308	1156.69189	-299.89658	1386.99438	912.09467	-355.02209	1203.49915	837.27203	-382.90646	1056.09656	844.25177	-366.30469	945.66998	812.47345	-304.69638	818.71234	817.46118	-362.30896	823.55853	801.40985	-328.08209	746.41925	785.0722	-286.54675	1385.8783	1223.83337	-336.26788	1186.51318	1329.15479	-328.02316	1061.92578	1338.57849	-283.2413	950.69531	1374.2196	-184.94315	848.51929	1360.1853	-227.85846	843.99951	1399.81555	-178.74045	773.07373	1399.63733	-227.7235	927.11224	977.27911	-229.38705	920.27911	1195.17224	-414.65372	937.93103	1024.08923	-413.64523	942.35748	1168.93652	-191.18732	609.45923	913.07996	-164.12054	481.52737	929.56671	-172.89845	293.63901	910.7746	-155.69064	72.31981	950.85455	-197.78616	39.79031	1002.59137	-8.17727	44.10853	953.43707	-337.98108	595.63098	1248.15881	-366.57175	435.98654	1226.96765	-485.44949	303.14725	1238.68982	-597.28448	126.04309	1198.02612	-660.64612	113.03381	1153.03796	-486.10901	37.41076	1180.07568	-190.92062	1699.23047	1095.78516	-1973.04858	1023.57312	3102.03003	-2012.5531	1022.01428	3140.71948	NaN	NaN	NaN	NaN	NaN	NaN
103	1.02	-207.40192	1661.0116	1004.65497	-169.81755	1665.22876	1113.01575	-321.56232	1624.47107	1038.72791	-285.57666	1628.7074	1154.00208	-361.70593	1424.41541	1075.94714	-392.68912	1130.11609	1085.39258	-219.13297	1356.70642	1067.50696	-173.5757	1203.00012	1061.95447	-411.78403	1227.08899	1154.20032	-292.0101	1387.00244	909.66327	-346.37799	1203.18665	835.01245	-373.58203	1055.771	841.72662	-356.14243	945.46106	810.03052	-294.06421	818.71478	815.15936	-351.67062	823.32721	798.92029	-316.96921	746.26984	782.76459	-278.53143	1386.29492	1221.3761	-328.88293	1187.01025	1326.48853	-321.07709	1062.41345	1335.81274	-277.24515	950.9386	1371.52234	-179.8235	847.91144	1357.71057	-222.81265	843.76398	1397.29053	-174.24826	772.37659	1397.37341	-218.8065	927.87219	975.08167	-220.25414	920.44952	1192.75879	-405.73648	938.25452	1022.37085	-404.34149	942.38806	1167.16138	-181.35379	610.2359	912.04468	-154.64651	481.58698	929.31885	-165.42624	293.39194	908.71924	-153.99942	72.53679	951.22296	-196.8911	40.25399	1002.65247	-6.78468	42.34902	952.29901	-327.39459	595.66644	1246.43762	-355.78152	435.75958	1226.17212	-477.98361	305.88373	1237.98755	-593.09253	130.6394	1198.23291	-656.49622	119.50712	1152.83374	-485.36005	37.70749	1180.38086	-183.61346	1699.79395	1093.14282	-1973.08557	1023.39221	3102.07324	-2012.53198	1022.12024	3140.80347	NaN	NaN	NaN	NaN	NaN	NaN
